<?xml version="1.0" encoding="iso-8859-1"?>
<!-- Generator: Adobe Illustrator 19.1.0, SVG Export Plug-In . SVG Version: 6.00 Build 0)  -->
<svg version="1.1" id="Capa_1" xmlns="http://www.w3.org/2000/svg" xmlns:xlink="http://www.w3.org/1999/xlink" x="0px" y="0px"
	 viewBox="0 0 216.291 216.291" style="enable-background:new 0 0 216.291 216.291;" xml:space="preserve">
<g>
	<g id="group-25svg">
		<path id="path-1_86_" style="fill:#0CB04A;" d="M196,206.297c4.396,0,7.96-2.236,7.96-4.996c0-2.759-3.564-4.996-7.96-4.996
			h-24.394c-4.395,0-7.96,2.237-7.96,4.996c0,2.76,3.565,4.996,7.96,4.996H196z"/>
		<path id="path-2_86_" style="fill:#0CB04A;" d="M144.048,216.291h7.025c2.019,0,3.656-2.019,3.656-4.51
			c0-2.492-1.637-4.511-3.656-4.511h-29.726c-2.019,0-3.655-2.02-3.655-4.511c0-2.492,1.636-4.511,3.655-4.511h6.246
			c2.018,0,3.655-2.02,3.655-4.511c0-2.492-1.637-4.511-3.655-4.511H97.866H70.819c-2.018,0-3.655,2.019-3.655,4.511
			c0,2.491,1.637,4.511,3.655,4.511h22.506c2.019,0,3.655,2.019,3.655,4.511c0,2.491-1.636,4.511-3.655,4.511h-0.487
			c-2.019,0-3.655,2.019-3.655,4.511c0,2.491,1.636,4.51,3.655,4.51h10.47l0,0"/>
		<path id="path-3_86_" style="fill:#0CB04A;" d="M29.742,51.63c4.576,4.532,4.576,11.883,0,16.415
			c-4.576,4.533-11.994,4.533-16.57,0c-4.576-4.532-4.576-11.883,0-16.415C17.748,47.097,25.166,47.097,29.742,51.63z"/>
		<path id="path-4_85_" style="fill:#0CB04A;" d="M201.266,137.081c7.281,7.214,7.281,18.909,0,26.124
			c-7.282,7.213-19.087,7.213-26.369,0c-7.282-7.215-7.282-18.91,0-26.124C182.179,129.868,193.984,129.868,201.266,137.081z"/>
		<path id="path-5_85_" style="fill:#FFFFFF;" d="M196.708,141.597c2.352,2.331,2.352,6.109,0,8.44c-2.353,2.331-6.168,2.331-8.52,0
			c-2.353-2.331-2.353-6.109,0-8.44C190.54,139.266,194.355,139.266,196.708,141.597z"/>
		<path id="path-6_84_" style="fill:#0CB04A;" d="M67.677,2.2c2.96,2.933,2.96,7.688,0,10.62s-7.76,2.932-10.72,0
			s-2.96-7.687,0-10.62S64.717-0.733,67.677,2.2z"/>
		<path id="path-7_84_" style="fill:#FBB713;" d="M174.908,67.328l-0.719,0.378c0.241,7.711-1.99,14.667-7.009,19.639l-9.515,9.427
			c-14.317,1.268-29.616,8.321-42.075,20.664c-12.46,12.343-19.58,27.5-20.86,41.683l-11.188,11.082
			c-12.626,12.508-37.839,7.808-56.316-10.495c-3.278-3.247-6.101-6.71-8.494-10.27l-1.466,0.771
			c1.814,10.244,7.659,21.281,17.057,30.59c18.477,18.305,43.69,23.003,56.316,10.496l11.187-11.084
			c1.28-14.182,8.401-29.338,20.86-41.681s27.758-19.396,42.076-20.665l9.515-9.426C183.746,99.056,183.445,82.661,174.908,67.328z"
			/>
		<path id="path-8_81_" style="fill:#FCCB56;" d="M70.71,72.978c-12.968,12.847-29.012,19.954-43.824,20.78l-10.254,10.158
			c-12.626,12.508-7.883,37.486,10.594,55.79c18.477,18.303,43.69,23.003,56.316,10.495l11.188-11.082
			c1.28-14.183,8.4-29.34,20.86-41.683c12.459-12.343,27.758-19.396,42.075-20.664l9.515-9.427
			c12.625-12.507,7.882-37.485-10.595-55.789c-18.477-18.303-43.69-23.003-56.316-10.496l-8.581,8.503
			C90.853,44.236,83.68,60.129,70.71,72.978z"/>
		<path id="path-9_77_" style="opacity:0.15;fill:#0B0B0A;enable-background:new    ;" d="M39.981,102.861
			c4.575,4.532,4.575,11.882,0,16.415c-4.576,4.533-11.995,4.533-16.571,0c-4.575-4.533-4.575-11.883,0-16.415
			C27.986,98.328,35.405,98.328,39.981,102.861z"/>
		<path id="path-10_70_" style="opacity:0.25;fill:#0B0B0A;enable-background:new    ;" d="M155.433,105.758
			c2.961,2.933,2.961,7.688,0,10.621c-2.96,2.932-7.76,2.932-10.72,0c-2.96-2.933-2.96-7.688,0-10.621
			C147.673,102.826,152.473,102.826,155.433,105.758z"/>
		<path id="path-11_61_" style="opacity:0.15;fill:#0B0B0A;enable-background:new    ;" d="M117.605,18.083
			c2.96,2.932,2.96,7.688,0,10.62s-7.76,2.932-10.72,0s-2.96-7.688,0-10.62C109.845,15.15,114.645,15.15,117.605,18.083z"/>
		<path id="path-12_51_" style="opacity:0.15;fill:#0B0B0A;enable-background:new    ;" d="M101.079,89.102
			c5.067,5.019,5.067,13.156,0,18.175c-5.066,5.019-13.28,5.019-18.347,0c-5.066-5.019-5.066-13.156,0-18.175
			C87.799,84.084,96.013,84.084,101.079,89.102z"/>
		<path id="path-13_42_" style="opacity:0.15;fill:#0B0B0A;enable-background:new    ;" d="M172.22,62.357
			c5.066,5.019,5.066,13.157,0,18.175c-5.066,5.019-13.281,5.019-18.347,0c-5.066-5.018-5.066-13.156,0-18.175
			C158.939,57.338,167.154,57.338,172.22,62.357z"/>
		<path id="path-14_35_" style="opacity:0.15;fill:#0B0B0A;enable-background:new    ;" d="M49.673,158.466
			c2.96,2.933,2.96,7.687,0,10.62c-2.961,2.932-7.76,2.932-10.721,0c-2.96-2.933-2.96-7.687,0-10.62
			C41.913,155.533,46.712,155.533,49.673,158.466z"/>
	</g>
</g>
<g>
</g>
<g>
</g>
<g>
</g>
<g>
</g>
<g>
</g>
<g>
</g>
<g>
</g>
<g>
</g>
<g>
</g>
<g>
</g>
<g>
</g>
<g>
</g>
<g>
</g>
<g>
</g>
<g>
</g>
</svg>
