<?xml version="1.0" encoding="iso-8859-1"?>
<!-- Generator: Adobe Illustrator 19.0.0, SVG Export Plug-In . SVG Version: 6.00 Build 0)  -->
<svg version="1.1" id="Layer_1" xmlns="http://www.w3.org/2000/svg" xmlns:xlink="http://www.w3.org/1999/xlink" x="0px" y="0px"
	 viewBox="0 0 316.714 316.714" style="enable-background:new 0 0 316.714 316.714;" xml:space="preserve">
<g>
	<g>
		<path style="fill:#E0B03B;" d="M168.191,56.362H21.356v115.163c0,72.767,77.94,129.622,127.165,145.189h19.669L168.191,56.362
			L168.191,56.362z"/>
		<rect x="21.356" style="fill:#FFC843;" width="146.834" height="56.362"/>
	</g>
	<path style="fill:#FFC843;" d="M295.356,56.362v115.163c0,72.767-77.94,129.622-127.165,145.189
		c-49.226-15.567-127.166-72.423-127.166-145.189V56.362H295.356z"/>
	<rect x="41.025" style="fill:#FFE09B;" width="254.332" height="56.362"/>
	<g>
		<path style="fill:#333E48;" d="M225.497,137.245h-19.137c0-21.047-17.123-38.17-38.169-38.17c-21.047,0-38.17,17.123-38.17,38.17
			h-19.137c0-31.599,25.708-57.306,57.307-57.306C199.789,79.939,225.497,105.646,225.497,137.245z"/>
		<rect x="99.774" y="137.245" style="fill:#5C6670;" width="136.832" height="97.428"/>
		<path style="fill:#333E48;" d="M168.191,156.456c-9.688,0-17.542,7.855-17.542,17.542c0,6.268,3.296,11.751,8.239,14.854v20.496
			h18.605v-20.496c4.943-3.103,8.239-8.586,8.239-14.854C185.732,164.311,177.88,156.456,168.191,156.456z"/>
	</g>
</g>
<g>
</g>
<g>
</g>
<g>
</g>
<g>
</g>
<g>
</g>
<g>
</g>
<g>
</g>
<g>
</g>
<g>
</g>
<g>
</g>
<g>
</g>
<g>
</g>
<g>
</g>
<g>
</g>
<g>
</g>
</svg>
